<svg width="16" height="14" viewBox="0 0 16 14" fill="none" xmlns="http://www.w3.org/2000/svg">
<path d="M2.44746 0.888184C2.44703 0.888184 2.44654 0.888184 2.44611 0.888184C2.29478 0.888184 2.15245 0.947174 2.04498 1.05438C1.93632 1.16277 1.87646 1.30709 1.87646 1.46074V10.0461C1.87646 10.3609 2.1336 10.6177 2.44972 10.6185C3.78241 10.6217 6.01521 10.8994 7.55552 12.5113V3.52652C7.55552 3.4198 7.52826 3.31955 7.47681 3.23658C6.21259 1.20064 3.78317 0.891308 2.44746 0.888184Z" fill="black"/>
<path d="M14.1236 10.046V1.46062C14.1236 1.30697 14.0637 1.16265 13.9551 1.05426C13.8476 0.947052 13.7051 0.888062 13.554 0.888062C13.5535 0.888062 13.553 0.888062 13.5526 0.888062C12.2169 0.89124 9.78751 1.20057 8.52323 3.23651C8.47179 3.31948 8.44458 3.41973 8.44458 3.52645V12.5112C9.9849 10.8993 12.2177 10.6215 13.5504 10.6184C13.8664 10.6175 14.1236 10.3608 14.1236 10.046Z" fill="black"/>
<path d="M15.4276 2.86804H15.0125V10.046C15.0125 10.8499 14.3575 11.5053 13.5525 11.5073C12.4221 11.51 10.5582 11.731 9.23816 12.9804C11.5212 12.4214 13.9278 12.7848 15.2994 13.0974C15.4707 13.1364 15.6477 13.0961 15.7849 12.9867C15.9216 12.8776 16 12.7145 16 12.5395V3.44049C16.0001 3.12485 15.7432 2.86804 15.4276 2.86804Z" fill="black"/>
<path d="M0.987586 10.046V2.86804H0.572446C0.256863 2.86804 0 3.12485 0 3.44049V12.5393C0 12.7144 0.078438 12.8774 0.215166 12.9865C0.352271 13.0958 0.529079 13.1363 0.700608 13.0972C2.0722 12.7846 4.47894 12.4213 6.76183 12.9802C5.44185 11.7309 3.57798 11.51 2.44758 11.5073C1.64256 11.5053 0.987586 10.8499 0.987586 10.046Z" fill="black"/>
</svg>
